<svg width="41" height="31" viewBox="0 0 41 31" fill="none" xmlns="http://www.w3.org/2000/svg">
<path id="icon" d="M7.8925 23.3819C9.635 22.3994 11.5825 21.6248 13.735 21.0579C15.8875 20.4911 18.1425 20.2077 20.5 20.2077C22.8575 20.2077 25.1125 20.4911 27.265 21.0579C29.4175 21.6248 31.365 22.3994 33.1075 23.3819C34.3033 22.349 35.2344 21.1776 35.9006 19.8676C36.5669 18.5576 36.9 17.1594 36.9 15.6731C36.9 12.3225 35.3027 9.46947 32.1081 7.11399C28.9135 4.75851 25.0442 3.58077 20.5 3.58077C15.9558 3.58077 12.0865 4.75851 8.89188 7.11399C5.69729 9.46947 4.1 12.3225 4.1 15.6731C4.1 17.1594 4.43312 18.5576 5.09937 19.8676C5.76562 21.1776 6.69667 22.349 7.8925 23.3819ZM20.5 17.1846C18.4842 17.1846 16.7844 16.6745 15.4006 15.6542C14.0169 14.6339 13.325 13.3806 13.325 11.8942C13.325 10.4079 14.0169 9.15457 15.4006 8.13428C16.7844 7.11399 18.4842 6.60385 20.5 6.60385C22.5158 6.60385 24.2156 7.11399 25.5994 8.13428C26.9831 9.15457 27.675 10.4079 27.675 11.8942C27.675 13.3806 26.9831 14.6339 25.5994 15.6542C24.2156 16.6745 22.5158 17.1846 20.5 17.1846ZM20.5 30.7885C17.6642 30.7885 14.9992 30.3917 12.505 29.5981C10.0108 28.8046 7.84125 27.7276 5.99625 26.3672C4.15125 25.0068 2.69063 23.4071 1.61438 21.5681C0.538125 19.729 0 17.764 0 15.6731C0 13.5821 0.538125 11.6171 1.61438 9.77808C2.69063 7.93904 4.15125 6.33933 5.99625 4.97894C7.84125 3.61856 10.0108 2.54159 12.505 1.74803C14.9992 0.954472 17.6642 0.557693 20.5 0.557693C23.3358 0.557693 26.0008 0.954472 28.495 1.74803C30.9892 2.54159 33.1588 3.61856 35.0038 4.97894C36.8488 6.33933 38.3094 7.93904 39.3856 9.77808C40.4619 11.6171 41 13.5821 41 15.6731C41 17.764 40.4619 19.729 39.3856 21.5681C38.3094 23.4071 36.8488 25.0068 35.0038 26.3672C33.1588 27.7276 30.9892 28.8046 28.495 29.5981C26.0008 30.3917 23.3358 30.7885 20.5 30.7885Z" fill="#1D1B20"/>
</svg>
